<?xml version="1.0" standalone="no"?>
<!DOCTYPE svg PUBLIC "-//W3C//DTD SVG 20010904//EN"
 "http://www.w3.org/TR/2001/REC-SVG-20010904/DTD/svg10.dtd">
<svg version="1.0" xmlns="http://www.w3.org/2000/svg"
 width="512.000000pt" height="512.000000pt" viewBox="0 0 512.000000 512.000000"
 preserveAspectRatio="xMidYMid meet">
<metadata>
Created by potrace 1.14, written by Peter Selinger 2001-2017
</metadata>
<g transform="translate(0.000000,512.000000) scale(0.100000,-0.100000)"
fill="#eb5528" stroke="none">
<path d="M2295 5109 c-851 -87 -1614 -608 -2011 -1373 -130 -250 -222 -538
-260 -816 -19 -140 -22 -201 -19 -400 2 -124 6 -243 10 -265 40 -248 66 -362
120 -523 81 -236 186 -438 353 -679 87 -125 272 -324 408 -440 356 -302 771
-497 1232 -578 134 -24 228 -30 467 -30 251 1 403 20 628 81 965 259 1696
1060 1861 2039 8 50 18 106 21 125 12 69 15 457 5 565 -32 317 -134 656 -282
935 -66 123 -66 124 -112 195 -330 510 -840 895 -1410 1065 -134 40 -288 74
-386 86 -30 3 -77 10 -104 14 -65 10 -420 9 -521 -1z"/>
</g>
</svg>
