<?xml version="1.0" standalone="no"?>
<!DOCTYPE svg PUBLIC "-//W3C//DTD SVG 20010904//EN"
 "http://www.w3.org/TR/2001/REC-SVG-20010904/DTD/svg10.dtd">
<svg version="1.0" xmlns="http://www.w3.org/2000/svg"
 width="537.000000pt" height="537.000000pt" viewBox="0 0 537.000000 537.000000"
 preserveAspectRatio="xMidYMid meet">
<metadata>
Created by potrace 1.14, written by Peter Selinger 2001-2017
</metadata>
<g transform="translate(0.000000,537.000000) scale(0.100000,-0.100000)"
fill="#000000" stroke="none">
<path d="M2480 5353 c-70 -7 -293 -45 -317 -54 -31 -11 -136 -36 -193 -44 -24
-4 -52 -11 -62 -16 -10 -5 -18 -7 -18 -4 0 3 -13 -1 -30 -10 -16 -9 -30 -14
-30 -11 0 2 -36 -11 -80 -29 -44 -18 -80 -32 -80 -30 0 2 -34 -14 -76 -36 -41
-21 -81 -39 -89 -39 -7 0 -20 -6 -27 -12 -7 -7 -26 -20 -43 -28 -60 -28 -170
-94 -173 -102 -2 -4 -9 -8 -15 -8 -7 0 -46 -26 -88 -58 -43 -31 -87 -64 -99
-72 -12 -8 -28 -19 -34 -25 -6 -5 -29 -23 -51 -40 -67 -49 -336 -325 -397
-406 -31 -41 -84 -120 -119 -175 -34 -54 -65 -101 -68 -104 -3 -3 -16 -27 -29
-55 -13 -27 -28 -57 -33 -65 -20 -31 -92 -185 -91 -192 1 -5 -1 -8 -6 -8 -8 0
-23 -34 -48 -110 -9 -30 -26 -75 -37 -100 -12 -25 -22 -54 -24 -64 -2 -11 -10
-39 -18 -62 -8 -24 -17 -54 -20 -69 -3 -14 -7 -36 -10 -50 -3 -13 -9 -35 -15
-49 -5 -13 -6 -26 -3 -29 3 -3 1 -12 -3 -19 -8 -13 -10 -18 -20 -73 -25 -140
-24 -744 1 -855 3 -14 8 -36 11 -50 3 -14 9 -38 14 -55 5 -16 12 -43 14 -60 3
-16 13 -55 21 -85 9 -30 20 -71 24 -91 4 -19 12 -42 17 -50 4 -8 10 -18 11
-24 17 -72 122 -311 174 -395 16 -26 29 -52 29 -58 0 -6 21 -45 48 -85 26 -41
58 -93 72 -116 40 -68 112 -161 186 -240 84 -91 277 -280 323 -318 19 -15 48
-41 65 -56 85 -77 386 -260 526 -318 30 -13 58 -27 61 -32 3 -5 9 -8 13 -7 4
1 40 -12 81 -29 40 -17 80 -31 87 -31 7 0 25 -6 39 -14 14 -7 70 -23 125 -36
54 -12 124 -29 154 -37 146 -39 306 -54 560 -54 281 1 339 7 575 61 50 12 103
23 118 26 76 14 282 89 368 135 31 16 62 29 69 29 6 0 38 16 71 35 33 19 71
38 84 41 14 3 25 10 25 15 0 5 9 9 19 9 11 0 32 11 47 25 15 14 30 25 35 25 4
0 14 6 21 12 7 7 46 35 87 62 40 27 78 54 85 60 6 6 41 35 76 65 78 66 315
303 385 384 28 33 55 64 61 71 6 6 42 61 79 121 38 61 79 124 91 140 11 17 26
45 32 62 6 18 25 53 42 78 17 25 29 45 26 45 -2 0 9 27 25 60 16 33 29 65 29
70 0 6 3 10 8 10 4 0 18 35 32 78 13 42 27 82 30 87 14 20 70 214 100 342 35
149 43 252 43 508 0 242 -11 417 -29 477 -3 9 -7 27 -9 40 -5 28 -39 156 -67
253 -12 39 -29 86 -38 105 -10 19 -23 59 -31 88 -7 28 -16 52 -20 52 -4 0 -10
10 -14 23 -10 30 -6 21 -55 122 -23 50 -46 92 -50 95 -4 3 -11 16 -15 29 -4
14 -25 53 -46 88 -22 35 -39 68 -39 73 0 6 -4 10 -8 10 -5 0 -15 12 -23 28 -8
15 -17 32 -22 37 -4 6 -33 47 -65 92 -80 115 -203 247 -379 409 -62 58 -82 74
-92 74 -5 0 -11 4 -13 8 -1 5 -39 35 -83 68 -44 32 -82 62 -85 65 -6 7 -201
119 -245 141 -16 8 -39 19 -50 26 -37 21 -210 100 -255 117 -50 18 -52 18 -95
30 -16 4 -39 13 -50 18 -11 6 -24 12 -30 13 -27 6 -73 14 -100 19 -75 13 -92
17 -130 31 -102 36 -267 56 -485 58 -118 2 -231 1 -250 -1z"/>
</g>
</svg>
